REM DIRINDEX 1\2,1\3
REM DIRNAME cjc039,folder01,folder02
TITLE ""
FILE "2001-2020.mp3" MP3
  TRACK 01 AUDIO
    TITLE "0:"
    INDEX 01 00:00:00
  TRACK 02 AUDIO
    TITLE "2:cjc039_3001"
    INDEX 01 00:00:27
  TRACK 03 AUDIO
    TITLE "0:"
    INDEX 01 00:01:21
  TRACK 04 AUDIO
    TITLE "3:cjc039_3002"
    INDEX 01 00:01:73
  TRACK 05 AUDIO
    TITLE "0:"
    INDEX 01 00:05:38
  TRACK 06 AUDIO
    TITLE "2:cjc039_3003"
    INDEX 01 00:07:15
  TRACK 07 AUDIO
    TITLE "0:"
    INDEX 01 00:08:44
  TRACK 08 AUDIO
    TITLE "3:cjc039_3004"
    INDEX 01 00:09:24
  TRACK 09 AUDIO
    TITLE "0:"
    INDEX 01 00:13:53
  TRACK 10 AUDIO
    TITLE "2:cjc039_3005"
    INDEX 01 00:15:25
  TRACK 11 AUDIO
    TITLE "0:"
    INDEX 01 00:16:32
  TRACK 12 AUDIO
    TITLE "3:cjc039_3006"
    INDEX 01 00:17:06
  TRACK 13 AUDIO
    TITLE "0:"
    INDEX 01 00:21:29
  TRACK 14 AUDIO
    TITLE "2:cjc039_3007"
    INDEX 01 00:23:06
  TRACK 15 AUDIO
    TITLE "0:"
    INDEX 01 00:24:25
  TRACK 16 AUDIO
    TITLE "3:cjc039_3008"
    INDEX 01 00:25:01
  TRACK 17 AUDIO
    TITLE "0:"
    INDEX 01 00:28:19
  TRACK 18 AUDIO
    TITLE "2:cjc039_3009"
    INDEX 01 00:29:72
  TRACK 19 AUDIO
    TITLE "0:"
    INDEX 01 00:31:10
  TRACK 20 AUDIO
    TITLE "3:cjc039_3010"
    INDEX 01 00:31:63
  TRACK 21 AUDIO
    TITLE "0:"
    INDEX 01 00:35:29
  TRACK 22 AUDIO
    TITLE "2:cjc039_3011"
    INDEX 01 00:37:05
  TRACK 23 AUDIO
    TITLE "0:"
    INDEX 01 00:38:31
  TRACK 24 AUDIO
    TITLE "3:cjc039_3012"
    INDEX 01 00:39:09
  TRACK 25 AUDIO
    TITLE "0:"
    INDEX 01 00:44:05
  TRACK 26 AUDIO
    TITLE "2:cjc039_3013"
    INDEX 01 00:45:53
  TRACK 27 AUDIO
    TITLE "0:"
    INDEX 01 00:46:74
  TRACK 28 AUDIO
    TITLE "3:cjc039_3014"
    INDEX 01 00:47:44
  TRACK 29 AUDIO
    TITLE "0:"
    INDEX 01 00:51:65
  TRACK 30 AUDIO
    TITLE "2:cjc039_3015"
    INDEX 01 00:53:45
  TRACK 31 AUDIO
    TITLE "0:"
    INDEX 01 00:54:50
  TRACK 32 AUDIO
    TITLE "3:cjc039_3016"
    INDEX 01 00:55:30
  TRACK 33 AUDIO
    TITLE "0:"
    INDEX 01 00:58:42
  TRACK 34 AUDIO
    TITLE "2:cjc039_3017"
    INDEX 01 01:00:19
  TRACK 35 AUDIO
    TITLE "0:"
    INDEX 01 01:01:27
  TRACK 36 AUDIO
    TITLE "3:cjc039_3018"
    INDEX 01 01:02:05
  TRACK 37 AUDIO
    TITLE "0:"
    INDEX 01 01:05:48
  TRACK 38 AUDIO
    TITLE "2:cjc039_3019"
    INDEX 01 01:07:21
  TRACK 39 AUDIO
    TITLE "0:"
    INDEX 01 01:08:38
  TRACK 40 AUDIO
    TITLE "3:cjc039_3020"
    INDEX 01 01:09:14
  TRACK 41 AUDIO
    TITLE "0:"
    INDEX 01 01:14:17
  TRACK 42 AUDIO
    TITLE "2:cjc039_3021"
    INDEX 01 01:15:68
  TRACK 43 AUDIO
    TITLE "0:"
    INDEX 01 01:17:08
  TRACK 44 AUDIO
    TITLE "3:cjc039_3022"
    INDEX 01 01:17:57
  TRACK 45 AUDIO
    TITLE "0:"
    INDEX 01 01:21:63
  TRACK 46 AUDIO
    TITLE "2:cjc039_3023"
    INDEX 01 01:23:40
  TRACK 47 AUDIO
    TITLE "0:"
    INDEX 01 01:24:47
  TRACK 48 AUDIO
    TITLE "3:cjc039_3024"
    INDEX 01 01:25:29
  TRACK 49 AUDIO
    TITLE "0:"
    INDEX 01 01:29:56
  TRACK 50 AUDIO
    TITLE "2:cjc039_3025"
    INDEX 01 01:31:34
  TRACK 51 AUDIO
    TITLE "0:"
    INDEX 01 01:32:45
  TRACK 52 AUDIO
    TITLE "3:cjc039_3026"
    INDEX 01 01:33:17
  TRACK 53 AUDIO
    TITLE "0:"
    INDEX 01 01:37:26
  TRACK 54 AUDIO
    TITLE "2:cjc039_3027"
    INDEX 01 01:39:02
  TRACK 55 AUDIO
    TITLE "0:"
    INDEX 01 01:40:25
  TRACK 56 AUDIO
    TITLE "3:cjc039_3028"
    INDEX 01 01:41:01
  TRACK 57 AUDIO
    TITLE "0:"
    INDEX 01 01:44:21
  TRACK 58 AUDIO
    TITLE "2:cjc039_3029"
    INDEX 01 01:45:67
  TRACK 59 AUDIO
    TITLE "0:"
    INDEX 01 01:47:03
  TRACK 60 AUDIO
    TITLE "3:cjc039_3030"
    INDEX 01 01:47:56
  TRACK 61 AUDIO
    TITLE "0:"
    INDEX 01 01:50:74
  TRACK 62 AUDIO
    TITLE "2:cjc039_3031"
    INDEX 01 01:52:51
  TRACK 63 AUDIO
    TITLE "0:"
    INDEX 01 01:54:15
  TRACK 64 AUDIO
    TITLE "3:cjc039_3032"
    INDEX 01 01:54:60
  TRACK 65 AUDIO
    TITLE "0:"
    INDEX 01 02:00:45
  TRACK 66 AUDIO
    TITLE "2:cjc039_3033"
    INDEX 01 02:02:20
  TRACK 67 AUDIO
    TITLE "0:"
    INDEX 01 02:03:51
  TRACK 68 AUDIO
    TITLE "3:cjc039_3034"
    INDEX 01 02:04:25
  TRACK 69 AUDIO
    TITLE "0:"
    INDEX 01 02:09:28
  TRACK 70 AUDIO
    TITLE "2:cjc039_3035"
    INDEX 01 02:11:00
  TRACK 71 AUDIO
    TITLE "0:"
    INDEX 01 02:12:40
  TRACK 72 AUDIO
    TITLE "3:cjc039_3036"
    INDEX 01 02:13:20
  TRACK 73 AUDIO
    TITLE "0:"
    INDEX 01 02:17:38
  TRACK 74 AUDIO
    TITLE "2:cjc039_3037"
    INDEX 01 02:19:09
  TRACK 75 AUDIO
    TITLE "0:"
    INDEX 01 02:20:40
  TRACK 76 AUDIO
    TITLE "3:cjc039_3038"
    INDEX 01 02:21:18
  TRACK 77 AUDIO
    TITLE "0:"
    INDEX 01 02:25:39
  TRACK 78 AUDIO
    TITLE "2:cjc039_3039"
    INDEX 01 02:27:09
  TRACK 79 AUDIO
    TITLE "0:"
    INDEX 01 02:28:24
  TRACK 80 AUDIO
    TITLE "3:cjc039_3040"
    INDEX 01 02:29:00
  TRACK 81 AUDIO
    TITLE "0:"
    INDEX 01 02:32:59
